<?xml version="1.0" encoding="UTF-8"?>
<svg width="11px" height="8px" viewBox="0 0 11 8" version="1.1" xmlns="http://www.w3.org/2000/svg" xmlns:xlink="http://www.w3.org/1999/xlink">
    <!-- Generator: Sketch 42 (36781) - http://www.bohemiancoding.com/sketch -->
    <title>Fill 395</title>
    <desc>Created with Sketch.</desc>
    <defs></defs>
    <g id="Gene-Set-Characterization-Launcher" stroke="none" stroke-width="1" fill="none" fill-rule="evenodd">
        <g id="Launcher-GSC-Params-01" transform="translate(-120.000000, -220.000000)" fill="#7493AF">
            <path d="M130.464848,225.895083 L125.424034,220.071983 C125.340765,219.976006 125.175543,219.976006 125.092713,220.071983 L120.053652,225.895083 C120.015086,225.938909 119.996241,225.99632 120.000623,226.054608 C120.005006,226.112896 120.032178,226.166801 120.076441,226.20493 L121.208017,227.174789 C121.247898,227.208973 121.298736,227.22738 121.350888,227.22738 C121.356585,227.22738 121.362283,227.226941 121.36798,227.226503 C121.426268,227.222121 121.480173,227.19451 121.517863,227.149808 L125.258373,222.745341 L129.000636,227.149808 C129.038326,227.19451 129.092232,227.222121 129.15052,227.226503 C129.208808,227.229571 129.266219,227.212917 129.310045,227.174789 L130.44162,226.20493 C130.485884,226.166801 130.513494,226.112896 130.517877,226.054608 C130.521821,225.99632 130.502976,225.938909 130.464848,225.895083" id="Fill-395"></path>
        </g>
    </g>
</svg>