<?xml version="1.0" encoding="UTF-8"?>
<svg width="11px" height="8px" viewBox="0 0 11 8" version="1.1" xmlns="http://www.w3.org/2000/svg" xmlns:xlink="http://www.w3.org/1999/xlink">
    <!-- Generator: Sketch 42 (36781) - http://www.bohemiancoding.com/sketch -->
    <title>Fill 394</title>
    <desc>Created with Sketch.</desc>
    <defs></defs>
    <g id="Gene-Set-Characterization-Launcher" stroke="none" stroke-width="1" fill="none" fill-rule="evenodd">
        <g id="Launcher-GSC-Params-01" transform="translate(-120.000000, -462.000000)" fill="#7493AF">
            <path d="M130.441621,463.021704 L129.310045,462.051845 C129.265781,462.014155 129.208808,461.998378 129.150082,462.000131 C129.092232,462.004513 129.038327,462.032124 129.000637,462.076826 L125.257935,466.481731 L121.517864,462.076826 C121.479736,462.032124 121.42583,462.004513 121.36798,462.000131 C121.311445,461.998816 121.252281,462.014155 121.208017,462.051845 L120.076442,463.021704 C120.032178,463.059833 120.004568,463.113738 120.000624,463.172026 C119.996241,463.230314 120.015086,463.287725 120.053214,463.331551 L125.092275,469.154651 C125.133909,469.20242 125.194388,469.230469 125.257935,469.230469 C125.321483,469.230469 125.3824,469.20242 125.423596,469.154651 L130.464848,463.331551 C130.502976,463.287725 130.521821,463.230314 130.517439,463.172026 C130.513494,463.113738 130.485884,463.059833 130.441621,463.021704" id="Fill-394"></path>
        </g>
    </g>
</svg>