<?xml version="1.0" encoding="utf-8"?>
<!-- Generator: Adobe Illustrator 18.1.1, SVG Export Plug-In . SVG Version: 6.00 Build 0)  -->
<svg version="1.1" id="Layer_1" xmlns="http://www.w3.org/2000/svg" xmlns:xlink="http://www.w3.org/1999/xlink" x="0px" y="0px"
	 width="149.8px" height="28.5px" viewBox="0 0 149.8 28.5" enable-background="new 0 0 149.8 28.5" xml:space="preserve">
<g>
	<polygon fill="#FFFFFF" points="132.2,6.3 129.2,6.3 128.2,11.1 133.4,10.7 133.9,8.2 	"/>
	<polygon fill="#FFFFFF" points="138.4,6.3 135.8,6.3 134.9,10.6 139.2,10.3 139.7,8 	"/>
</g>
<g>
	<polygon fill="#FFFFFF" points="131.1,11.7 128,11.9 127.1,16.7 132.3,15.9 132.8,13.3 	"/>
	<polygon fill="#FFFFFF" points="137.3,11.2 134.7,11.4 133.8,15.8 138.2,15.1 138.7,12.8 	"/>
</g>
<g>
	<polygon fill="#FFFFFF" points="130,17 126.9,17.6 125.9,22.3 131.2,21 131.7,18.5 	"/>
	<polygon fill="#FFFFFF" points="136.3,16.1 133.7,16.5 132.8,20.8 137.2,19.8 137.7,17.5 	"/>
	<polygon fill="#FFFFFF" points="143.9,6.3 141.6,6.3 140.8,10.3 144.7,10 145.2,7.9 	"/>
	<polygon fill="#FFFFFF" points="143,10.8 140.6,11 139.8,15 143.8,14.3 144.2,12.2 	"/>
	<polygon fill="#FFFFFF" points="142.1,15.3 139.7,15.7 138.8,19.6 142.9,18.7 143.3,16.5 	"/>
</g>
<path fill="#FFFFFF" d="M86.3,20.4h-7.8l-2.2-2.2l2-9.7l3.1-2.2h7.8l2.2,2.2l-0.9,4.2l-3.1,2.2h-6.6l-0.5,2.5h9.2l-0.2,0.7
	L86.3,20.4z M87.4,9.3H82L81.4,12h5.4L87.4,9.3z"/>
<path fill="#FFFFFF" d="M104.6,20.4h-3.8l2.3-11.1h-5.1l-2.3,11.1H92l2.9-14.2h0.8l2.6,1.6l2.2-1.6h4.4l2.2,2.2L104.6,20.4z"/>
<path fill="#FFFFFF" d="M123.1,6.3h0.8l-3.4,16.4l-3.1,2.2h-7.6l-2.2-2.2l0.1-0.7h9l0.9-4.5l-2.2,1.6h-4.7l-2.2-2.2l1.7-8.3l3.1-2.2
	h4.7l1.6,1.6L123.1,6.3z M119.4,9.3H114l-1.4,6.7h5.4L119.4,9.3z"/>
<g>
	<path fill="#FFFFFF" d="M19.7,20.5l-4.2-6.8l-3.6,3.1l0,3.7H8.2l0-13.2l3.1-1l0.7-0.1l0,6.6l7.3-6.4h4.6l-5.4,4.9l5.4,9.3H19.7z"/>
	<path fill="#FFFFFF" d="M38.1,20.5h-3.8l0-11.1h-5.1l0,11.1h-3.8l0-14.1h0.8l2.9,1.6l1.9-1.6h4.4l2.6,2.2L38.1,20.5z"/>
	<path fill="#FFFFFF" d="M51.7,20.5h-7.8l-2.6-2.2l0-9.7l2.6-2.2h7.8l2.6,2.2l0,9.7L51.7,20.5z M50.5,9.4h-5.4l0,8h5.4L50.5,9.4z"/>
	<path fill="#FFFFFF" d="M71.4,20.5h-3.5l-2.2-6.3l-2.2,6.3H60l-4-14.1h4l2,8.2l2.7-6.8h1.9l2.8,6.8l2.1-8.2h4L71.4,20.5z"/>
</g>
</svg>
