<svg version="1.1" xmlns="http://www.w3.org/2000/svg" xmlns:xlink="http://www.w3.org/1999/xlink" x="0px" y="0px"
	 width="32.1px" height="28.2px" viewBox="0 0 32.1 28.2" enable-background="new 0 0 32.1 28.2" xml:space="preserve">
<g>
	<path fill="#ffffff" d="M7.5,16.6h-3c-0.3,0-0.5,0.2-0.5,0.5v6c0,0.3,0.2,0.5,0.5,0.5h3c0.3,0,0.5-0.2,0.5-0.5v-6
		C8,16.8,7.8,16.6,7.5,16.6z"/>
	<path fill="#ffffff" d="M12.5,13.6h-3c-0.3,0-0.5,0.2-0.5,0.5v9c0,0.3,0.2,0.5,0.5,0.5h3c0.3,0,0.5-0.2,0.5-0.5v-9
		C13,13.8,12.8,13.6,12.5,13.6z"/>
	<path fill="#ffffff" d="M17.5,10.6h-3c-0.3,0-0.5,0.2-0.5,0.5v12c0,0.3,0.2,0.5,0.5,0.5h3c0.3,0,0.5-0.2,0.5-0.5v-12
		C18,10.8,17.8,10.6,17.5,10.6z"/>
	<path fill="#ffffff" d="M22.5,7.6h-3c-0.3,0-0.5,0.2-0.5,0.5v15c0,0.3,0.2,0.5,0.5,0.5h3c0.3,0,0.5-0.2,0.5-0.5v-15
		C23,7.8,22.8,7.6,22.5,7.6z"/>
	<path fill="#ffffff" d="M27.5,4.6h-3c-0.3,0-0.5,0.2-0.5,0.5v18c0,0.3,0.2,0.5,0.5,0.5h3c0.3,0,0.5-0.2,0.5-0.5v-18
		C28,4.8,27.8,4.6,27.5,4.6z"/>
</g>
</svg>
