<svg version="1.1" xmlns="http://www.w3.org/2000/svg" xmlns:xlink="http://www.w3.org/1999/xlink" x="0px" y="0px"
	 width="32.1px" height="28.2px" viewBox="0 0 32.1 28.2" enable-background="new 0 0 32.1 28.2" xml:space="preserve">
<path fill="#ffffff" d="M23.6,4c-1.4,0-2.5,1.1-2.5,2.5c0,0.9,0.5,1.8,1.3,2.2l-2.1,5.8c-0.1,0-0.3,0-0.4,0c-0.6,0-1.2,0.2-1.6,0.6
	l-2.1-1.8c0.2-0.4,0.4-0.8,0.4-1.3c0-1.4-1.1-2.5-2.5-2.5s-2.5,1.1-2.5,2.5c0,0.8,0.4,1.5,0.9,2l-3,5.3c-0.3-0.1-0.6-0.2-0.9-0.2
	c-1.4,0-2.5,1.1-2.5,2.5c0,1.4,1.1,2.5,2.5,2.5s2.5-1.1,2.5-2.5c0-0.8-0.4-1.5-0.9-2l3-5.3c0.3,0.1,0.6,0.2,0.9,0.2
	c0.6,0,1.2-0.2,1.6-0.6l2.1,1.8c-0.2,0.4-0.4,0.8-0.4,1.3c0,1.4,1.1,2.5,2.5,2.5s2.5-1.1,2.5-2.5c0-0.9-0.5-1.8-1.3-2.2L23.1,9
	c0.1,0,0.3,0,0.4,0c1.4,0,2.5-1.1,2.5-2.5C26.1,5.2,25,4,23.6,4z"/>
</svg>
