<svg version="1.1" xmlns="http://www.w3.org/2000/svg" xmlns:xlink="http://www.w3.org/1999/xlink" x="0px" y="0px"
	 width="32.1px" height="28.2px" viewBox="0 0 32.1 28.2" enable-background="new 0 0 32.1 28.2" xml:space="preserve">
<g>
	<path fill="#ffffff" d="M10,21.1c-1.1,0-2-0.9-2-2v-10c0-1.1,0.9-2,2-2h6.6l-1,1.4C15.4,9,15.5,9.6,16,9.9c0.2,0.1,0.4,0.2,0.6,0.2
		c0.3,0,0.6-0.2,0.8-0.4l2-3c0,0,0-0.1,0.1-0.1c0,0,0-0.1,0-0.1c0-0.1,0.1-0.2,0.1-0.3c0,0,0,0,0,0s0,0,0,0c0-0.1,0-0.2-0.1-0.3
		c0,0,0-0.1,0-0.1c0,0,0-0.1-0.1-0.1l-2-3C17.1,2.1,16.4,2,16,2.3c-0.5,0.3-0.6,0.9-0.3,1.4l1,1.4H10c-2.2,0-4,1.8-4,4v10
		c0,2.2,1.8,4,4,4c0.6,0,1-0.4,1-1S10.6,21.1,10,21.1z"/>
	<path fill="#ffffff" d="M22,5.1c-0.6,0-1,0.4-1,1s0.4,1,1,1c1.1,0,2,0.9,2,2v10c0,1.1-0.9,2-2,2h-6.6l1-1.4
		c0.3-0.5,0.2-1.1-0.3-1.4c-0.5-0.3-1.1-0.2-1.4,0.3l-2,3c0,0,0,0.1-0.1,0.1c0,0,0,0.1,0,0.1c0,0.1-0.1,0.2-0.1,0.3c0,0,0,0,0,0
		s0,0,0,0c0,0.1,0,0.2,0.1,0.3c0,0,0,0.1,0,0.1c0,0,0,0.1,0.1,0.1l2,3c0.2,0.3,0.5,0.4,0.8,0.4c0.2,0,0.4-0.1,0.6-0.2
		c0.5-0.3,0.6-0.9,0.3-1.4l-1-1.4H22c2.2,0,4-1.8,4-4v-10C26,6.9,24.2,5.1,22,5.1z"/>
</g>
</svg>
