<svg version="1.1" xmlns="http://www.w3.org/2000/svg" xmlns:xlink="http://www.w3.org/1999/xlink" x="0px" y="0px"
	 width="32.1px" height="28.2px" viewBox="0 0 32.1 28.2" enable-background="new 0 0 32.1 28.2" xml:space="preserve">
<path fill="#ffffff" d="M16,2.1c-6.6,0-12,5.4-12,12c0,3.2,1.2,6.2,3.5,8.4l0,0c2.3,2.3,5.3,3.6,8.5,3.6c3.2,0,6.3-1.3,8.5-3.6
	c2.2-2.3,3.5-5.3,3.5-8.4C28,7.5,22.6,2.1,16,2.1z M24.1,21.5c-1.1-0.6-2.6-1.2-4.3-1.8c-0.4-0.2-0.8-0.3-1.3-0.5v-1.8
	c0.5-0.3,1.4-1.1,1.5-2.9c0.4-0.2,0.6-0.7,0.6-1.4c0-0.6-0.2-1-0.5-1.3c0.2-0.8,0.7-2.1,0.4-3.3c-0.3-1.4-2.2-1.9-3.7-1.9
	c-1.3,0-3,0.4-3.6,1.5c-0.7,0-1.1,0.3-1.3,0.5c-0.6,0.8-0.2,2.4,0,3.2c-0.3,0.2-0.5,0.7-0.5,1.3c0,0.6,0.2,1.1,0.6,1.4
	c0.1,1.8,1,2.6,1.5,2.9v1.8c-0.4,0.1-0.8,0.3-1.2,0.4c-1.6,0.6-3.3,1.2-4.4,1.9c-1.9-2-2.9-4.7-2.9-7.4C5,8,10,3.1,16,3.1
	s11,4.9,11,11C27,16.9,26,19.5,24.1,21.5z"/>
</svg>
