<svg version="1.1" xmlns="http://www.w3.org/2000/svg" xmlns:xlink="http://www.w3.org/1999/xlink" x="0px" y="0px"
	 width="32.1px" height="28.2px" viewBox="0 0 32.1 28.2" enable-background="new 0 0 32.1 28.2" xml:space="preserve">
<path fill="#ffffff" d="M25,8.7c0.3,0.1,0.6,0.3,0.7,0.5c0.3,0.4,0.4,0.9,0.2,1.5l-3.3,10.6c-0.1,0.5-0.4,0.9-0.9,1.3
	c-0.5,0.3-1,0.5-1.5,0.5H9.2c-0.3,0-0.6-0.1-0.9-0.2c-0.3-0.1-0.6-0.3-0.9-0.5c-0.3-0.2-0.5-0.4-0.7-0.7c-0.2-0.3-0.4-0.5-0.5-0.9
	c-0.2-0.5-0.2-1,0-1.5c0-0.1,0-0.2,0-0.4c0-0.1,0-0.3,0-0.4c0-0.1,0-0.2,0-0.2c0-0.1,0-0.2,0-0.2c0-0.1,0.1-0.2,0.2-0.4
	c0.1-0.1,0.2-0.3,0.3-0.4c0.2-0.3,0.4-0.6,0.5-1.1c0.2-0.4,0.3-0.8,0.4-1.1c0-0.1,0-0.2,0-0.4c0-0.1,0-0.2,0-0.3
	c0-0.1,0.1-0.2,0.2-0.3C7.8,14.2,7.9,14.1,8,14c0.1-0.1,0.2-0.3,0.3-0.5c0.1-0.2,0.2-0.4,0.3-0.6c0.1-0.2,0.1-0.4,0.2-0.6
	c0-0.2,0.1-0.3,0.1-0.5c0-0.1,0-0.3,0-0.4c0-0.1,0-0.2,0-0.3c0-0.1,0.1-0.2,0.2-0.3c0.1-0.1,0.2-0.2,0.3-0.3
	c0.1-0.1,0.2-0.2,0.3-0.4C9.6,10,9.7,9.8,9.8,9.6C9.9,9.4,9.9,9.2,10,9c0.1-0.2,0.1-0.4,0.1-0.5c0-0.1,0-0.2,0-0.3
	C10,8,10,7.9,10,7.8c0-0.1,0.1-0.2,0.2-0.3c0.1-0.1,0.2-0.2,0.3-0.4c0.1-0.2,0.2-0.4,0.3-0.7c0.1-0.3,0.2-0.5,0.4-0.7
	c0.1-0.2,0.3-0.4,0.5-0.5c0.2-0.1,0.5-0.1,0.9,0l0,0c0.2-0.1,0.5-0.1,0.6-0.1h9.1c0.6,0,1.1,0.2,1.4,0.7c0.3,0.4,0.4,0.9,0.2,1.5
	l-3.3,10.6c-0.1,0.5-0.4,0.9-0.9,1.3c-0.5,0.3-1,0.5-1.5,0.5H7.9c-0.1,0-0.2,0-0.2,0c-0.1,0-0.2,0.1-0.2,0.1c-0.1,0.2-0.1,0.4,0,0.7
	c0.1,0.3,0.4,0.6,0.7,0.9c0.3,0.3,0.7,0.4,1,0.4h11.1c0.2,0,0.5-0.1,0.7-0.3c0.2-0.2,0.4-0.4,0.4-0.6L25,9.4C25,9.3,25,9.1,25,9
	C25,8.9,25,8.8,25,8.7L25,8.7z M11.9,11.8c-0.1,0.3,0,0.5,0.3,0.5h7.2c0.1,0,0.2,0,0.4-0.1c0.1-0.1,0.2-0.2,0.2-0.3l0.3-0.9
	c0-0.1,0-0.2,0-0.3c-0.1-0.1-0.1-0.1-0.3-0.1h-7.2c-0.1,0-0.2,0-0.4,0.1c-0.1,0.1-0.2,0.2-0.2,0.3L11.9,11.8z M12.7,9.2
	c0,0.1,0,0.2,0,0.3c0.1,0.1,0.1,0.1,0.3,0.1h7.2c0.1,0,0.2,0,0.4-0.1c0.1-0.1,0.2-0.2,0.3-0.3l0.3-0.9c0-0.1,0-0.2,0-0.3
	c-0.1-0.1-0.1-0.1-0.3-0.1h-7.2c-0.1,0-0.2,0-0.4,0.1C13.1,8,13,8.1,13,8.2L12.7,9.2z"/>
</svg>
