<?xml version="1.0" encoding="UTF-8"?>
<svg width="17px" height="24px" viewBox="0 0 17 24" version="1.1" xmlns="http://www.w3.org/2000/svg" xmlns:xlink="http://www.w3.org/1999/xlink">
    <!-- Generator: sketchtool 52.5 (67469) - http://www.bohemiancoding.com/sketch -->
    <title>F93887CE-6108-44FC-993F-8A7264D50BB6@1x</title>
    <desc>Created with sketchtool.</desc>
    <g id="Support" stroke="none" stroke-width="1" fill="none" fill-rule="evenodd">
        <g id="Support-ManuscriptAccess" transform="translate(-428.000000, -668.000000)" fill="#FFFFFF">
            <g id="Group" transform="translate(428.000000, 668.000000)">
                <path d="M16.1811,7.2681 L9.1811,0.2681 C8.7981,-0.0889 8.2041,-0.0889 7.8211,0.2681 L0.8211,7.2681 C0.5191,7.5481 0.4191,7.9841 0.5701,8.3671 C0.7201,8.7491 1.0891,9.0001 1.5011,9.0001 L5.0011,9.0001 L5.0011,10.5001 C5.0011,11.0531 5.4481,11.5001 6.0001,11.5001 C6.5521,11.5001 7.0001,11.0531 7.0001,10.5001 L7.0001,8.0001 C7.0001,7.4491 6.5521,7.0001 6.0001,7.0001 L4.0481,7.0001 L8.5011,2.3661 L12.9541,7.0001 L11.0011,7.0001 C10.4481,7.0001 10.0011,7.4491 10.0011,8.0001 L10.0011,10.5001 C10.0011,11.0531 10.4481,11.5001 11.0011,11.5001 C11.5531,11.5001 12.0011,11.0531 12.0001,10.5001 L12.0001,9.0001 L15.5011,9.0001 C15.9111,9.0001 16.2811,8.7491 16.4321,8.3671 C16.5811,7.9841 16.4831,7.5481 16.1811,7.2681" id="Fill-35"></path>
                <path d="M6.0004,12.5005 C5.4474,12.5005 5.0014,12.9485 5.0014,13.5005 L5.0014,15.5005 C5.0014,16.0535 5.4474,16.5005 6.0004,16.5005 C6.5524,16.5005 7.0004,16.0535 7.0004,15.5005 L7.0004,13.5005 C7.0004,12.9485 6.5524,12.5005 6.0004,12.5005" id="Fill-37"></path>
                <path d="M11.0014,12.5005 C10.4484,12.5005 10.0014,12.9485 10.0014,13.5005 L10.0014,15.5005 C10.0014,16.0535 10.4484,16.5005 11.0014,16.5005 C11.5534,16.5005 12.0014,16.0535 12.0004,15.5005 L12.0004,13.5005 C12.0014,12.9485 11.5534,12.5005 11.0014,12.5005" id="Fill-39"></path>
                <path d="M6.0004,17.5005 C5.4474,17.5005 5.0014,17.9485 5.0014,18.5005 L5.0014,19.5005 C5.0014,20.0535 5.4474,20.5005 6.0004,20.5005 C6.5524,20.5005 7.0004,20.0535 7.0004,19.5005 L7.0004,18.5005 C7.0004,17.9485 6.5524,17.5005 6.0004,17.5005" id="Fill-41"></path>
                <path d="M11.0014,17.5005 C10.4484,17.5005 10.0014,17.9485 10.0014,18.5005 L10.0014,19.5005 C10.0014,20.0535 10.4484,20.5005 11.0014,20.5005 C11.5534,20.5005 12.0014,20.0535 12.0004,19.5005 L12.0004,18.5005 C12.0014,17.9485 11.5534,17.5005 11.0014,17.5005" id="Fill-43"></path>
                <path d="M6.0004,21.5005 C5.4474,21.5005 5.0014,21.9485 5.0014,22.5005 L5.0014,23.0005 C5.0014,23.5535 5.4484,24.0005 6.0014,24.0005 C6.5534,24.0005 7.0004,23.5535 7.0004,23.0005 L7.0004,22.5005 C7.0004,21.9485 6.5524,21.5005 6.0004,21.5005" id="Fill-45"></path>
                <path d="M11.0014,21.5005 C10.4484,21.5005 10.0014,21.9485 10.0014,22.5005 L10.0014,23.0005 C10.0014,23.5535 10.4484,24.0005 11.0014,24.0005 C11.5534,24.0005 12.0004,23.5535 12.0004,23.0005 L12.0004,22.5005 C12.0004,21.9485 11.5534,21.5005 11.0014,21.5005" id="Fill-47"></path>
            </g>
        </g>
    </g>
</svg>
